<svg width="210" height="60" xmlns="http://www.w3.org/2000/svg">

 <g>
  <title>background</title>
  <rect fill="none" id="canvas_background" height="62" width="212" y="-1" x="-1"/>
 </g>
 <g>
  <title>Layer 1</title>
  <g id="svg_2">
   <g id="svg_3">
    <path id="svg_4" d="m-95.883,24.261" fill="#FFFFFF"/>
   </g>
   <g id="svg_5">
    <g id="svg_6">
     <g id="svg_7">
      <polyline id="svg_8" points="5.016998291015625,15.1199951171875 5.016998291015625,15.1199951171875 5.016998291015625,15.1199951171875 5.016998291015625,15.1199951171875 5.016998291015625,15.1199951171875 5.016998291015625,15.1199951171875 5.016998291015625,15.1199951171875 5.016998291015625,15.1199951171875 5.016998291015625,15.1199951171875 5.016998291015625,15.1199951171875 " fill="none"/>
     </g>
    </g>
    <g id="svg_9">
     <g id="svg_10">
      <polyline id="svg_11" points="5.016998291015625,15.1199951171875 5.016998291015625,15.1199951171875 5.016998291015625,15.1199951171875 5.016998291015625,15.1199951171875 5.016998291015625,15.1199951171875 5.016998291015625,15.1199951171875 5.016998291015625,15.1199951171875 5.016998291015625,15.1199951171875 " fill="none"/>
     </g>
    </g>
    <g id="svg_12">
     <g id="svg_13">
      <polyline id="svg_14" points="5.016998291015625,15.1199951171875 5.016998291015625,15.1199951171875 5.016998291015625,15.1199951171875 5.016998291015625,15.1199951171875 " fill="none"/>
     </g>
    </g>
    <g id="svg_15">
     <g id="svg_16">
      <path id="svg_17" d="m5.017,15.12"/>
     </g>
    </g>
   </g>
   <path id="svg_18" d="m25.98,49.215c-2.344,-0.536 -3.68,-2.914 -3.097,-4.579c-6.44,3.197 -12.483,2.971 -18.131,-0.678c0.041,0.104 0.082,0.208 0.124,0.312c6.681,10.741 16.851,15.481 30.51,14.221c3.236,-7.521 3.861,-13.971 1.874,-19.351c-1.248,-1.697 -3.004,-1.71 -5.268,-0.041c-0.961,0.561 -1.489,3.06 -1.584,7.499c-0.266,1.98 -1.743,2.853 -4.428,2.617" fill="#FCC414" clip-rule="evenodd" fill-rule="evenodd"/>
   <path id="svg_19" d="m4.752,43.958c5.648,3.649 11.691,3.875 18.131,0.678c0.16,-0.457 0.464,-0.86 0.932,-1.157c2.521,-1.906 3.361,-3.856 2.521,-5.85c-0.85,-3.058 -4.675,-4.436 -11.473,-4.137c-3.756,0.08 -5.555,-1.439 -5.397,-4.557c0.498,-2.718 1.92,-4.086 4.266,-4.105c0.537,-0.086 1.049,-0.066 1.537,0.058c-3.75,-4.456 -5.289,-9.947 -4.617,-16.473c-0.159,0.142 -0.316,0.287 -0.473,0.433c-9.212,9.231 -11.02,20.934 -5.427,35.11" fill="#F59E1B" clip-rule="evenodd" fill-rule="evenodd"/>
   <path id="svg_20" d="m15.267,24.888c0.896,0.229 1.709,0.813 2.438,1.752c2.473,1.993 4.859,2.661 7.159,2.004c1.945,-0.811 2.463,-2.33 1.552,-4.557c-1.062,-1.742 -2.796,-3.39 -5.204,-4.945c-1.717,-1.979 -1.544,-3.929 0.517,-5.85c1.455,-1.012 2.964,-1.12 4.525,-0.323c0.666,0.23 1.268,1.105 1.805,2.623c-0.693,-7.092 -0.405,-12.033 0.862,-14.824c-7.258,0.684 -13.349,3.233 -18.273,7.647c-0.67,6.526 0.869,12.017 4.619,16.473" fill="#EC6922" clip-rule="evenodd" fill-rule="evenodd"/>
   <path id="svg_21" d="m28.06,15.592c0.302,0.852 0.583,1.906 0.845,3.162c0.582,2.774 1.498,4.595 2.747,5.462c1.194,0.532 1.899,0.15 2.117,-1.147c0.123,-1.364 -0.001,-3.055 -0.372,-5.074c-0.393,-3.504 0.857,-5.282 3.749,-5.333c2.727,0.436 3.794,1.923 3.2,4.46c1.971,-3.824 6.071,-6.31 12.301,-7.458c-5.227,-6.048 -13.135,-9.013 -23.724,-8.896c-1.268,2.791 -1.555,7.732 -0.863,14.824" fill="#383C8F" clip-rule="evenodd" fill-rule="evenodd"/>
   <path id="svg_22" d="m40.346,17.122c-1.623,2.394 -2.765,4.452 -3.426,6.173c-0.578,1.829 -0.481,3.122 0.291,3.878c2.344,1.144 4.701,-2.734 7.004,-4.736c1.918,-1.668 4.619,-0.639 5.277,2.118c0.264,1.68 -0.316,2.863 -1.743,3.549c5.066,-0.177 8.928,2.53 11.585,8.121l-0.003,-0.301c0.798,-11.687 -1.249,-20.719 -6.399,-25.925c-0.094,-0.113 -0.189,-0.225 -0.285,-0.336c-6.23,1.149 -10.33,3.635 -12.301,7.459" fill="#0FA8E0" clip-rule="evenodd" fill-rule="evenodd"/>
   <path id="svg_23" d="m46.195,28.595c-2.898,0.535 -4.848,1.182 -5.85,1.94c-1.47,1.845 -1.297,3.45 0.517,4.816c4.689,5.427 6.13,13.785 4.845,23.139l14.131,0.072l-0.505,-22.337c-2.657,-5.591 -6.519,-8.298 -11.585,-8.121c-0.437,0.211 -0.955,0.375 -1.553,0.491" fill="#61C1D2" clip-rule="evenodd" fill-rule="evenodd"/>
  </g>
  <g id="svg_24">
   <path id="svg_25" d="m91.822,42.954l-3.324,-7.457l-10.701,0l-3.287,7.457l-3.141,0l10.555,-23.542l2.611,0l10.5,23.542l-3.213,0zm-4.292,-9.911l-3.104,-7.265c-0.402,-0.919 -0.815,-2.047 -1.242,-3.384c-0.268,1.026 -0.651,2.154 -1.15,3.384l-3.141,7.265l8.637,0z" fill="#1D1D1B"/>
   <path id="svg_26" d="m110.448,30.67l9.076,0l0,11.402c-1.413,0.396 -2.849,0.695 -4.31,0.897c-1.461,0.203 -3.153,0.305 -5.077,0.305c-4.042,0 -7.189,-1.056 -9.441,-3.167c-2.252,-2.111 -3.378,-5.07 -3.378,-8.876c0,-2.438 0.557,-4.573 1.671,-6.407s2.718,-3.234 4.812,-4.202c2.094,-0.967 4.547,-1.451 7.359,-1.451c2.849,0 5.503,0.46 7.962,1.38l-1.205,2.405c-2.411,-0.898 -4.729,-1.348 -6.958,-1.348c-3.25,0 -5.789,0.851 -7.615,2.55c-1.826,1.7 -2.739,4.058 -2.739,7.073c0,3.164 0.879,5.564 2.639,7.2c1.759,1.636 4.343,2.454 7.752,2.454c1.85,0 3.658,-0.188 5.423,-0.562l0,-7.217l-5.971,0l0,-2.436z" fill="#1D1D1B"/>
   <path id="svg_27" d="m145.146,42.954l-3.324,-7.457l-10.7,0l-3.287,7.457l-3.141,0l10.554,-23.542l2.611,0l10.502,23.542l-3.215,0zm-4.291,-9.911l-3.105,-7.265c-0.4,-0.919 -0.814,-2.047 -1.24,-3.384c-0.27,1.026 -0.652,2.154 -1.15,3.384l-3.142,7.265l8.637,0z" fill="#1D1D1B"/>
   <path id="svg_28" d="m165.342,42.954l-9.058,-20.784l-0.146,0c0.17,1.646 0.255,3.604 0.255,5.87l0,14.914l-2.866,0l0,-23.446l4.675,0l8.455,19.341l0.146,0l8.528,-19.341l4.638,0l0,23.446l-3.104,0l0,-15.106c0,-1.732 0.085,-3.614 0.255,-5.646l-0.146,0l-9.131,20.752l-2.501,0z" fill="#1D1D1B"/>
   <path id="svg_29" d="m205.569,42.954l-3.323,-7.457l-10.701,0l-3.287,7.457l-3.141,0l10.555,-23.542l2.611,0l10.501,23.542l-3.215,0zm-4.291,-9.911l-3.104,-7.265c-0.401,-0.919 -0.815,-2.047 -1.241,-3.384c-0.269,1.026 -0.651,2.154 -1.15,3.384l-3.142,7.265l8.637,0z" fill="#1D1D1B"/>
  </g>
 </g>
</svg>